HIERARCHY
ROOT joint_0
{
	OFFSET 0.000000 0.000000 0.000000
	CHANNELS 6 Xposition Yposition Zposition Zrotation Yrotation Xrotation 
	JOINT joint_1
	{
		OFFSET 10.084412 4.114712 95.061035
		CHANNELS 3 Zrotation Yrotation Xrotation
		JOINT joint_2
		{
			OFFSET -1.615463 4.243484 87.329956
			CHANNELS 3 Zrotation Yrotation Xrotation
			JOINT joint_3
			{
				OFFSET -3.579636 4.638191 87.154053
				CHANNELS 3 Zrotation Yrotation Xrotation
				JOINT joint_4
				{
					OFFSET 5.443451 7.217075 123.562988
					CHANNELS 3 Zrotation Yrotation Xrotation
					JOINT joint_5
					{
						OFFSET 21.688065 15.141808 90.458008
						CHANNELS 3 Zrotation Yrotation Xrotation
						End Site
						{
							OFFSET 0.000000 0.000000 0.000000
						}
					}
				}
				JOINT joint_6
				{
					OFFSET 3.611374 -22.863556 70.791992
					CHANNELS 3 Zrotation Yrotation Xrotation
					JOINT joint_7
					{
						OFFSET 3.493607 -153.029137 -12.665039
						CHANNELS 3 Zrotation Yrotation Xrotation
						JOINT joint_8
						{
							OFFSET -14.929443 -32.628616 -254.032959
							CHANNELS 3 Zrotation Yrotation Xrotation
							JOINT joint_9
							{
								OFFSET 11.589401 -3.548126 -242.255005
								CHANNELS 3 Zrotation Yrotation Xrotation
								End Site
								{
									OFFSET 0.000000 0.000000 0.000000
								}
							}
						}
					}
				}
				JOINT joint_10
				{
					OFFSET 2.651962 30.943008 67.690918
					CHANNELS 3 Zrotation Yrotation Xrotation
					JOINT joint_11
					{
						OFFSET -6.172562 150.392159 -30.576904
						CHANNELS 3 Zrotation Yrotation Xrotation
						JOINT joint_12
						{
							OFFSET 15.363358 20.741959 -255.254028
							CHANNELS 3 Zrotation Yrotation Xrotation
							JOINT joint_13
							{
								OFFSET 23.282578 -11.086121 -241.182983
								CHANNELS 3 Zrotation Yrotation Xrotation
								End Site
								{
									OFFSET 0.000000 0.000000 0.000000
								}
							}
						}
					}
				}
			}
		}
	}
	JOINT joint_14
	{
		OFFSET -7.080551 -92.910816 -106.291992
		CHANNELS 3 Zrotation Yrotation Xrotation
		JOINT joint_15
		{
			OFFSET -38.248322 -6.001282 -411.906006
			CHANNELS 3 Zrotation Yrotation Xrotation
			JOINT joint_16
			{
				OFFSET -11.189407 -11.244659 -448.150986
				CHANNELS 3 Zrotation Yrotation Xrotation
				JOINT joint_17
				{
					OFFSET 169.870491 -24.631378 -80.352999
					CHANNELS 3 Zrotation Yrotation Xrotation
					End Site
					{
						OFFSET 0.000000 0.000000 0.000000
					}
				}
			}
		}
	}
	JOINT joint_18
	{
		OFFSET -2.796600 85.817772 -112.273987
		CHANNELS 3 Zrotation Yrotation Xrotation
		JOINT joint_19
		{
			OFFSET -44.395859 -8.174402 -411.255005
			CHANNELS 3 Zrotation Yrotation Xrotation
			JOINT joint_20
			{
				OFFSET -25.617508 -5.555587 -447.666992
				CHANNELS 3 Zrotation Yrotation Xrotation
				JOINT joint_21
				{
					OFFSET 163.870811 53.215703 -78.867000
					CHANNELS 3 Zrotation Yrotation Xrotation
					End Site
					{
						OFFSET 0.000000 0.000000 0.000000
					}
				}
			}
		}
	}
}
MOTION
Frames: 6
Frame Time: 0.016667
-148.588730 -91.376823 1064.187988 1.076123 1.696729 2.686933 -0.482168 -8.309217 0.487074 -0.984575 1.355312 -0.155347 -0.804522 -1.735717 0.143789 -3.414760 9.370025 7.860782 0.000000 0.000000 0.000000 -2.900774 -1.744324 2.493977 0.872268 -2.228225 -3.706202 -0.236341 6.225751 -3.519839 0.000000 0.000000 0.000000 -1.549367 2.057761 -2.063850 0.627631 2.614433 0.918100 0.289646 -2.194027 1.905011 0.000000 0.000000 0.000000 -0.413915 -2.764916 -0.831504 -0.674205 3.375827 1.026021 -0.425316 -4.618142 -0.870685 0.000000 0.000000 0.000000 -3.819691 -4.803591 -0.464169 -3.928248 0.650260 -0.703481 -3.855737 0.679848 -2.073210 0.000000 0.000000 0.000000 
-148.625122 -91.444710 1064.170044 1.064332 1.698328 2.687884 -0.475067 -8.321084 0.490616 -0.978342 1.353888 -0.153789 -0.798458 -1.735225 0.143409 -3.415331 9.378204 7.857401 0.000000 0.000000 0.000000 -2.906732 -1.745157 2.507883 0.873239 -2.230125 -3.701692 -0.236960 6.243659 -3.529532 0.000000 0.000000 0.000000 -1.539228 2.059189 -2.088753 0.626639 2.614071 0.910512 0.290457 -2.184884 1.917789 0.000000 0.000000 0.000000 -0.411147 -2.759707 -0.833287 -0.671757 3.356550 1.031258 -0.423542 -4.608385 -0.868436 0.000000 0.000000 0.000000 -3.807649 -4.812550 -0.460081 -3.916941 0.662794 -0.698232 -3.844222 0.687948 -2.070312 0.000000 0.000000 0.000000 
-148.673492 -91.513901 1064.150024 1.052767 1.697217 2.689511 -0.468365 -8.327403 0.494021 -0.972254 1.352530 -0.153532 -0.792549 -1.732539 0.144097 -3.415220 9.382085 7.854245 0.000000 0.000000 0.000000 -2.911462 -1.747967 2.522872 0.874369 -2.233964 -3.699031 -0.237499 6.258668 -3.537109 0.000000 0.000000 0.000000 -1.528146 2.059480 -2.115197 0.626067 2.612635 0.905756 0.291155 -2.179375 1.927706 0.000000 0.000000 0.000000 -0.408682 -2.754373 -0.834928 -0.669537 3.341277 1.035071 -0.421895 -4.599990 -0.866444 0.000000 0.000000 0.000000 -3.794763 -4.822554 -0.455747 -3.904702 0.681355 -0.694998 -3.831872 0.695341 -2.066780 0.000000 0.000000 0.000000 
-148.752792 -91.585808 1064.126953 1.043901 1.688647 2.690593 -0.462575 -8.317850 0.498571 -0.966388 1.352967 -0.153759 -0.786832 -1.729091 0.143727 -3.414701 9.374507 7.856741 0.000000 0.000000 0.000000 -2.914778 -1.753391 2.539262 0.875348 -2.240363 -3.700337 -0.237685 6.262042 -3.536332 0.000000 0.000000 0.000000 -1.521925 2.057581 -2.141716 0.626896 2.610539 0.906294 0.291491 -2.185959 1.928175 0.000000 0.000000 0.000000 -0.407526 -2.749914 -0.834907 -0.668637 3.340125 1.037893 -0.421085 -4.597007 -0.865630 0.000000 0.000000 0.000000 -3.781406 -4.835376 -0.446776 -3.891002 0.716074 -0.700363 -3.818505 0.698288 -2.061301 0.000000 0.000000 0.000000 
-148.856003 -91.661301 1064.100952 1.036531 1.673023 2.691675 -0.457685 -8.295020 0.503109 -0.960874 1.355578 -0.155229 -0.781198 -1.726211 0.145030 -3.413477 9.358646 7.861667 0.000000 0.000000 0.000000 -2.916084 -1.760984 2.555334 0.876271 -2.248721 -3.703505 -0.237632 6.258110 -3.529946 0.000000 0.000000 0.000000 -1.517833 2.054384 -2.169475 0.628868 2.608018 0.910560 0.291642 -2.202306 1.922095 0.000000 0.000000 0.000000 -0.407309 -2.744290 -0.833621 -0.668554 3.348987 1.038975 -0.420787 -4.597496 -0.865561 0.000000 0.000000 0.000000 -3.767472 -4.848859 -0.434794 -3.875988 0.763221 -0.712203 -3.804170 0.697851 -2.054247 0.000000 0.000000 0.000000 
-148.953278 -91.734665 1064.064941 1.029240 1.662755 2.693665 -0.453632 -8.276287 0.507903 -0.956235 1.354402 -0.156309 -0.776877 -1.719746 0.145770 -3.411907 9.346854 7.863625 0.000000 0.000000 0.000000 -2.916681 -1.769852 2.573016 0.877502 -2.258471 -3.709865 -0.237590 6.253930 -3.524182 0.000000 0.000000 0.000000 -1.509854 2.051665 -2.200109 0.630407 2.605290 0.917142 0.291830 -2.213378 1.918977 0.000000 0.000000 0.000000 -0.407068 -2.741980 -0.833757 -0.668631 3.353657 1.040803 -0.420733 -4.597976 -0.865606 0.000000 0.000000 0.000000 -3.751929 -4.865091 -0.425298 -3.860055 0.805216 -0.719796 -3.788711 0.700523 -2.047664 0.000000 0.000000 0.000000 
